<svg width="24" height="24" viewBox="0 0 24 24" fill="none" xmlns="http://www.w3.org/2000/svg">
<path opacity="0.4" d="M18.9401 5.42L13.7701 2.43C12.7801 1.86 11.2301 1.86 10.2401 2.43L5.02008 5.44C2.95008 6.84 2.83008 7.05 2.83008 9.28V14.71C2.83008 16.94 2.95008 17.16 5.06008 18.58L10.2301 21.57C10.7301 21.86 11.3701 22 12.0001 22C12.6301 22 13.2701 21.86 13.7601 21.57L18.9801 18.56C21.0501 17.16 21.1701 16.95 21.1701 14.72V9.28C21.1701 7.05 21.0501 6.84 18.9401 5.42Z" fill="#475569"/>
<path d="M12 15.25C13.7949 15.25 15.25 13.7949 15.25 12C15.25 10.2051 13.7949 8.75 12 8.75C10.2051 8.75 8.75 10.2051 8.75 12C8.75 13.7949 10.2051 15.25 12 15.25Z" fill="#475569"/>
</svg>
