<svg width="37" height="38" viewBox="0 0 37 38" fill="none" xmlns="http://www.w3.org/2000/svg">
<path d="M35.7113 22.8439C34.9249 21.6207 34.1389 20.4411 33.3525 19.2183C33.1781 18.9563 33.1781 18.7815 33.3525 18.5195C34.1389 17.3403 34.8813 16.1607 35.6677 14.9815C36.5849 13.5839 36.1045 12.2295 34.5317 11.6619C33.2217 11.1815 31.9113 10.6575 30.6009 10.1771C30.3389 10.0895 30.2077 9.9147 30.2077 9.6091C30.1641 8.1679 30.0769 6.7263 29.9893 5.3287C29.9021 3.7999 28.7229 2.9263 27.2377 3.3195C25.8401 3.6687 24.4425 4.0619 23.0881 4.4551C22.7825 4.5423 22.6081 4.4551 22.3893 4.2367C21.5157 3.1007 20.5985 2.0091 19.7253 0.9171C18.7641 -0.3057 17.2789 -0.3057 16.2745 0.9171C15.4009 2.0091 14.4837 3.1011 13.6537 4.1931C13.4353 4.4987 13.2169 4.5423 12.8677 4.4551C11.5137 4.0619 10.1597 3.7127 9.19849 3.4503C7.32049 3.0135 6.18489 3.7563 6.09729 5.3287C6.01009 6.7699 5.92289 8.2115 5.87889 9.6967C5.87889 10.0023 5.74809 10.1331 5.48609 10.2643L1.42409 11.8367C0.0260949 12.4047 -0.410705 13.7587 0.419295 15.0251C1.20569 16.2483 1.99169 17.4275 2.77809 18.6503C2.95249 18.9127 2.95249 19.0871 2.77809 19.3931C1.95203 20.614 1.15106 21.8518 0.375695 23.1055C-0.366705 24.2851 0.113695 25.6827 1.42369 26.2067C2.77809 26.7307 4.17569 27.2547 5.52969 27.7791C5.83529 27.8667 5.92289 28.0411 5.92289 28.3471C5.96649 29.7447 6.14129 31.0991 6.14129 32.4963C6.14129 33.8943 7.36409 35.1607 9.06769 34.6367C10.4217 34.1999 11.7757 33.8943 13.1297 33.5007C13.3917 33.4135 13.5665 33.4575 13.7413 33.7195C14.6585 34.8551 15.5321 35.9471 16.4493 37.0827C17.4537 38.3055 18.8953 38.3055 19.8561 37.0827C20.7733 35.9467 21.6469 34.8547 22.5641 33.7195C22.7389 33.5011 22.8697 33.4135 23.1757 33.5011C24.5733 33.8943 25.9709 34.2435 27.3689 34.6367C28.8101 35.0299 30.0329 34.1563 30.0769 32.6711C30.1641 31.2299 30.2513 29.7883 30.2953 28.3031C30.2953 27.9539 30.4697 27.8231 30.7321 27.7355C32.0641 27.2449 33.3891 26.7353 34.7065 26.2067C36.1045 25.5079 36.5413 24.1107 35.7113 22.8439ZM25.2721 15.6799L16.5365 24.4159C16.3181 24.6339 16.0125 24.8087 15.7065 24.8523C15.6193 24.8523 15.4881 24.8963 15.4009 24.8963C15.0077 24.8963 14.5709 24.7215 14.2653 24.4155L10.6837 20.8339C10.3899 20.5377 10.225 20.1373 10.225 19.7201C10.225 19.3029 10.3899 18.9025 10.6837 18.6063C10.9799 18.3125 11.3803 18.1476 11.7975 18.1476C12.2147 18.1476 12.6151 18.3125 12.9113 18.6063L15.3573 21.0523L22.9573 13.4523C23.2535 13.1585 23.6539 12.9936 24.0711 12.9936C24.4883 12.9936 24.8887 13.1585 25.1849 13.4523C25.8837 14.0639 25.8837 15.0679 25.2721 15.6799Z" fill="#15803D"/>
<path d="M25.2721 15.6799L16.5365 24.4159C16.3181 24.6339 16.0125 24.8087 15.7065 24.8523C15.6193 24.8523 15.4881 24.8963 15.4009 24.8963C15.0077 24.8963 14.5709 24.7215 14.2653 24.4155L10.6837 20.8339C10.3899 20.5377 10.225 20.1373 10.225 19.7201C10.225 19.3029 10.3899 18.9025 10.6837 18.6063C10.9799 18.3125 11.3803 18.1476 11.7975 18.1476C12.2147 18.1476 12.6151 18.3125 12.9113 18.6063L15.3573 21.0523L22.9573 13.4523C23.2535 13.1585 23.6539 12.9936 24.0711 12.9936C24.4883 12.9936 24.8887 13.1585 25.1849 13.4523C25.8837 14.0639 25.8837 15.0679 25.2721 15.6799Z" fill="white"/>
</svg>
