<svg width="24" height="24" viewBox="0 0 24 24" fill="none" xmlns="http://www.w3.org/2000/svg">
<path opacity="0.4" d="M16.19 2H7.82001C4.18001 2 2.01001 4.17 2.01001 7.81V16.18C2.01001 19.82 4.18001 21.99 7.82001 21.99H16.19C19.83 21.99 22 19.82 22 16.18V7.81C22 4.17 19.83 2 16.19 2Z" fill="#475569"/>
<path d="M8.54987 14.55V10.2601C9.38987 9.95007 9.99988 9.15007 9.99988 8.20007C9.99988 6.99007 9.00987 6.00006 7.79987 6.00006C6.58987 6.00006 5.59985 6.99007 5.59985 8.20007C5.59985 9.15007 6.20987 9.95007 7.04987 10.2601V14.55C6.28987 14.85 5.74988 15.5901 5.74988 16.4501C5.74988 17.5801 6.66987 18.5001 7.79987 18.5001C8.92987 18.5001 9.84985 17.5801 9.84985 16.4501C9.84985 15.5901 9.30987 14.85 8.54987 14.55Z" fill="#475569"/>
<path d="M17.4999 14.55V8.75005C17.4999 7.79005 16.7099 7.00005 15.7499 7.00005H14.6199L14.8299 6.83004C15.1499 6.56004 15.1899 6.09004 14.9299 5.77004C14.6599 5.45004 14.1899 5.41006 13.8699 5.67006L12.0699 7.17006C11.8999 7.31006 11.7999 7.52005 11.7999 7.75005C11.7999 7.98005 11.8999 8.18004 12.0699 8.33004L13.8699 9.83004C14.0099 9.95004 14.1799 10.0001 14.3499 10.0001C14.5599 10.0001 14.7799 9.91006 14.9299 9.73006C15.1999 9.41006 15.1499 8.94006 14.8299 8.67006L14.6199 8.50005H15.7499C15.8899 8.50005 15.9999 8.61005 15.9999 8.75005V14.55C15.2399 14.85 14.6999 15.5901 14.6999 16.4501C14.6999 17.5801 15.6199 18.5 16.7499 18.5C17.8799 18.5 18.7999 17.5801 18.7999 16.4501C18.7999 15.5901 18.2599 14.85 17.4999 14.55Z" fill="#475569"/>
</svg>
