<svg width="17" height="17" viewBox="0 0 17 17" fill="none" xmlns="http://www.w3.org/2000/svg">
<rect width="16.3333" height="16.3333" transform="translate(7.13953e-07 16.3333) rotate(-90)" fill="white"/>
<path d="M9.74993 2.52081C9.8213 2.59194 9.87794 2.67646 9.91658 2.76952C9.95522 2.86258 9.97511 2.96236 9.97511 3.06313C9.97511 3.16389 9.95522 3.26367 9.91658 3.35673C9.87794 3.44979 9.8213 3.53431 9.74993 3.60544L5.18872 8.16665L9.74993 12.7291C9.89376 12.873 9.97456 13.0681 9.97456 13.2715C9.97456 13.4749 9.89376 13.6699 9.74993 13.8138C9.6061 13.9576 9.41102 14.0384 9.20761 14.0384C9.0042 14.0384 8.80912 13.9576 8.66529 13.8138L3.56112 8.70961C3.48975 8.63848 3.43311 8.55396 3.39447 8.4609C3.35583 8.36784 3.33594 8.26806 3.33594 8.16729C3.33594 8.06653 3.35583 7.96675 3.39447 7.87369C3.43311 7.78062 3.48975 7.6961 3.56112 7.62497L8.66529 2.52081C8.73642 2.44943 8.82094 2.3928 8.914 2.35416C9.00707 2.31551 9.10684 2.29562 9.20761 2.29562C9.30838 2.29562 9.40815 2.31551 9.50122 2.35416C9.59428 2.3928 9.6788 2.44943 9.74993 2.52081Z" fill="#0A70AE"/>
</svg>
