<svg width="212" height="34" viewBox="0 0 212 34" fill="none" xmlns="http://www.w3.org/2000/svg">
<path d="M14.5459 25.7721C16.1536 23.6772 18.5246 21.0626 21.4639 19.325C21.0417 19.4062 20.6357 19.4387 20.2784 19.4387C18.6058 19.4712 17.0305 18.5617 16.3322 17.0515C16.0724 16.4993 15.9262 15.8822 15.9262 15.2326C15.9262 13.4788 16.9818 11.9685 18.4921 11.3027C15.0818 11.7574 12.0937 13.1053 9.96635 14.3395C9.30053 14.7292 8.56976 14.1121 8.68343 13.4625L0.904716 25.431C-0.881629 28.1918 0.0602622 31.6345 2.99961 33.1123C5.93896 34.5739 9.80396 33.5346 11.5903 30.7738L11.6065 30.7414C12.9382 28.6952 14.5784 27.0388 17.0143 25.9832L17.4203 25.7883C16.8194 26.0319 16.1536 26.3567 15.4391 26.7952C14.7895 27.1849 14.0749 26.3892 14.5459 25.7721Z" fill="#0071AD"/>
<path d="M38.9214 25.09C34.9752 16.7429 28.0247 17.3763 28.0247 17.3763C25.6213 17.36 23.4127 18.1558 21.4477 19.325C18.5084 21.0789 16.1374 23.6772 14.5297 25.7721C14.075 26.3729 14.7895 27.1687 15.4391 26.7789C16.1537 26.3405 16.8195 26.0157 17.4203 25.7721C18.7682 25.2199 19.7588 25.0738 20.2135 25.1063C20.311 25.1063 20.4571 25.1225 20.5546 25.1225C24.7281 25.1875 27.0341 27.4935 28.1546 29.1174C28.3982 29.4747 28.6256 29.8644 28.8042 30.2704C29.7786 32.414 32.0359 33.8431 34.6017 33.567C37.2975 33.291 39.7172 31.0824 39.6522 28.3704C39.6035 26.7952 39.5223 26.649 38.9214 25.09Z" fill="#F4A120"/>
<path d="M20.457 0.0324707H20.0673C18.1186 0.0324707 16.316 1.03932 15.3091 2.71199L8.78085 13.154C8.71589 13.2677 8.68341 13.3651 8.65093 13.4788C8.53725 14.1446 9.26803 14.7455 9.93385 14.3557C12.0612 13.1377 15.0331 11.7899 18.4596 11.3189C18.963 11.254 19.4664 11.2052 19.9861 11.1728H22.3408C24.8904 11.1728 26.9528 9.11035 26.9528 6.56075C26.9853 2.95558 24.0622 0.0324707 20.457 0.0324707Z" fill="#F06A28"/>
<path d="M60.471 13.966V33.4534H55.518V30.985C54.8847 31.8294 54.0564 32.4952 53.0334 32.9662C52.0103 33.4534 50.906 33.6807 49.7043 33.6807C48.1777 33.6807 46.8299 33.3559 45.6606 32.7063C44.4914 32.0568 43.5657 31.1149 42.8999 29.8482C42.2341 28.5977 41.8931 27.1037 41.8931 25.3661V13.9335H46.8136V24.6678C46.8136 26.2105 47.2034 27.4123 47.9666 28.2405C48.7461 29.0687 49.8017 29.4909 51.1333 29.4909C52.4975 29.4909 53.553 29.0687 54.3325 28.2405C55.112 27.4123 55.4855 26.2105 55.4855 24.6678V13.9335H60.471V13.966Z" fill="#0071AD"/>
<path d="M71.0755 18.0096V27.4447C71.0755 28.0943 71.2379 28.5815 71.5464 28.8738C71.855 29.1661 72.3909 29.3123 73.1541 29.3123H75.4439V33.4696H72.3421C68.1848 33.4696 66.1062 31.4559 66.1062 27.4123V18.0096H63.7839V13.966H66.1062V9.14284H71.0755V13.966H75.4439V18.0096H71.0755Z" fill="#0071AD"/>
<path d="M82.5729 32.5277C81.0789 31.6995 79.8934 30.514 79.0327 28.9875C78.172 27.461 77.7498 25.7071 77.7498 23.7097C77.7498 21.7122 78.1882 19.9583 79.0652 18.4318C79.9421 16.9053 81.1438 15.7361 82.6703 14.8916C84.1968 14.0634 85.902 13.6412 87.7695 13.6412C89.6533 13.6412 91.3422 14.0634 92.8687 14.8916C94.3952 15.7198 95.597 16.9053 96.4739 18.4318C97.3508 19.9583 97.7893 21.7122 97.7893 23.7097C97.7893 25.7071 97.3346 27.461 96.4414 28.9875C95.532 30.514 94.314 31.6833 92.7875 32.5277C91.2448 33.3559 89.5396 33.7781 87.6396 33.7781C85.7721 33.7781 84.0832 33.3559 82.5729 32.5277ZM90.1567 28.8413C90.9362 28.4029 91.5696 27.7533 92.0405 26.8926C92.5115 26.0319 92.7388 24.9763 92.7388 23.7259C92.7388 21.8746 92.2516 20.4455 91.2773 19.4549C90.3029 18.4643 89.1174 17.9609 87.7046 17.9609C86.2917 17.9609 85.1225 18.4643 84.1644 19.4549C83.2225 20.4455 82.7353 21.8746 82.7353 23.7259C82.7353 25.5772 83.2062 27.0063 84.1319 27.9969C85.0575 28.9875 86.2268 29.4909 87.6396 29.4909C88.5328 29.4909 89.3772 29.2636 90.1567 28.8413Z" fill="#0071AD"/>
<path d="M140.84 4.05986L132.542 33.7457H125.527L119.956 12.6018L114.126 33.7294L107.16 33.7781L99.1699 4.05986H105.552L110.781 27.1037L116.806 4.05986H123.432L129.148 26.9738L134.426 4.05986H140.84Z" fill="#0071AD"/>
<path d="M145.111 6.38211C144.413 5.71629 144.072 4.88808 144.072 3.89747C144.072 2.90686 144.413 2.07864 145.111 1.41282C145.81 0.747005 146.67 0.405975 147.726 0.405975C148.781 0.405975 149.642 0.747005 150.34 1.41282C151.039 2.07864 151.38 2.90686 151.38 3.89747C151.38 4.88808 151.039 5.71629 150.34 6.38211C149.642 7.04793 148.781 7.38896 147.726 7.38896C146.67 7.37272 145.81 7.04793 145.111 6.38211ZM150.649 10.1822V33.7457H144.689V10.1822H150.649Z" fill="#0071AD"/>
<path d="M173.936 29.2148V33.7132H156.885V29.1986H173.936V29.2148Z" fill="#0071AD"/>
<path d="M199.595 4.18979V9.97105H187.545V16.207H196.558V21.8096H187.545V33.7781H180.335V4.18979H199.595Z" fill="#0071AD"/>
<path d="M203.915 6.69067C203.119 5.94365 202.713 5.018 202.713 3.92996C202.713 2.80943 203.119 1.86754 203.915 1.12053C204.711 0.373508 205.75 0 207.017 0C208.251 0 209.274 0.373508 210.07 1.12053C210.865 1.86754 211.271 2.79319 211.271 3.92996C211.271 5.018 210.865 5.94365 210.07 6.69067C209.274 7.43769 208.251 7.8112 207.017 7.8112C205.75 7.8112 204.727 7.43769 203.915 6.69067ZM210.606 10.2634V33.7781H203.395V10.2634H210.606Z" fill="#0071AD"/>
<path d="M159.321 18.0258C158.931 18.4156 158.931 19.0652 159.321 19.4712C159.711 19.8609 160.36 19.8609 160.766 19.4712C163.511 16.7267 167.96 16.7267 170.705 19.4712C170.9 19.666 171.159 19.7635 171.419 19.7635C171.679 19.7635 171.939 19.666 172.134 19.4712C172.524 19.0814 172.524 18.4318 172.134 18.0258C168.594 14.4856 162.845 14.4856 159.321 18.0258Z" fill="#0071AD"/>
<path d="M162.065 20.7703C161.676 21.1601 161.676 21.8096 162.065 22.2156C162.455 22.6054 163.105 22.6054 163.511 22.2156C164.729 20.9977 166.726 20.9977 167.944 22.2156C168.139 22.4105 168.399 22.5079 168.659 22.5079C168.918 22.5079 169.178 22.4105 169.373 22.2156C169.763 21.8259 169.763 21.1763 169.373 20.7865C167.359 18.7566 164.079 18.7566 162.065 20.7703Z" fill="#0071AD"/>
<path d="M165.719 25.7721C166.464 25.7721 167.067 25.1686 167.067 24.4242C167.067 23.6798 166.464 23.0763 165.719 23.0763C164.975 23.0763 164.371 23.6798 164.371 24.4242C164.371 25.1686 164.975 25.7721 165.719 25.7721Z" fill="#0071AD"/>
<path d="M174.911 15.2326C169.844 10.1659 161.594 10.1659 156.528 15.2326C156.138 15.6224 156.138 16.272 156.528 16.678C156.917 17.0677 157.567 17.0677 157.973 16.678C162.244 12.407 169.211 12.407 173.482 16.678C173.677 16.8728 173.936 16.9703 174.196 16.9703C174.456 16.9703 174.716 16.8728 174.911 16.678C175.317 16.272 175.317 15.6386 174.911 15.2326Z" fill="#0071AD"/>
</svg>
