<svg width="19" height="19" viewBox="0 0 19 19" fill="none" xmlns="http://www.w3.org/2000/svg">
<path d="M7.91666 10.2916C8.35208 10.2916 8.70833 10.6479 8.70833 11.0833C8.70833 11.5187 8.35208 11.875 7.91666 11.875C7.48124 11.875 7.12499 11.5187 7.12499 11.0833C7.12499 10.6479 7.48124 10.2916 7.91666 10.2916ZM7.91666 8.70831C6.60249 8.70831 5.54166 9.76915 5.54166 11.0833C5.54166 12.3975 6.60249 13.4583 7.91666 13.4583C9.23083 13.4583 10.2917 12.3975 10.2917 11.0833C10.2917 9.76915 9.23083 8.70831 7.91666 8.70831ZM14.6458 7.12498L15.5087 5.21706L17.4167 4.35415L15.5087 3.49123L14.6458 1.58331L13.7829 3.49123L11.875 4.35415L13.7829 5.21706L14.6458 7.12498ZM16.8467 10.07L16.2292 8.70831L15.6117 10.07L14.25 10.6875L15.6117 11.305L16.2292 12.6666L16.8467 11.305L18.2083 10.6875L16.8467 10.07ZM12.8646 11.0833C12.8646 10.9883 12.8646 10.8854 12.8567 10.7904L14.3925 9.62665L12.4133 6.19873L10.64 6.9429C10.4817 6.83998 10.3075 6.73706 10.1333 6.64998L9.89583 4.74998H5.93749L5.69999 6.6579C5.52583 6.74498 5.35958 6.8479 5.19333 6.95081L3.41999 6.19873L1.44083 9.62665L2.97666 10.7904C2.96874 10.8854 2.96874 10.9883 2.96874 11.0833C2.96874 11.1783 2.96874 11.2812 2.97666 11.3762L1.44083 12.54L3.41999 15.9679L5.19333 15.2237C5.35166 15.3266 5.52583 15.4296 5.69999 15.5166L5.93749 17.4166H9.89583L10.1333 15.5087C10.3075 15.4216 10.4737 15.3266 10.64 15.2158L12.4133 15.96L14.3925 12.5321L12.8567 11.3683C12.8646 11.2812 12.8646 11.1783 12.8646 11.0833ZM11.7404 13.965L10.3708 13.3871C9.92749 13.8621 9.34166 14.2104 8.68458 14.3608L8.49458 15.8333H7.33874L7.15666 14.3608C6.49958 14.2104 5.91374 13.8621 5.47041 13.3871L4.10083 13.965L3.52291 12.9596L4.70249 12.065C4.60749 11.7562 4.55999 11.4316 4.55999 11.0912C4.55999 10.7508 4.60749 10.4262 4.70249 10.1175L3.52291 9.2229L4.10083 8.21748L5.47041 8.7954C5.91374 8.3204 6.49958 7.97206 7.15666 7.82165L7.33874 6.33331H8.50249L8.68458 7.80581C9.34166 7.95623 9.92749 8.30456 10.3708 8.77956L11.7404 8.20165L12.3183 9.20706L11.1387 10.1016C11.2337 10.4104 11.2812 10.735 11.2812 11.0754C11.2812 11.4158 11.2337 11.7404 11.1387 12.0491L12.3183 12.9437L11.7404 13.965Z" fill="#737373"/>
</svg>
