<svg width="24" height="24" viewBox="0 0 24 24" fill="none" xmlns="http://www.w3.org/2000/svg">
<path opacity="0.4" d="M16.19 2H7.81C4.17 2 2 4.17 2 7.81V16.18C2 19.83 4.17 22 7.81 22H16.18C19.82 22 21.99 19.83 21.99 16.19V7.81C22 4.17 19.83 2 16.19 2Z" fill="#475569"/>
<path d="M9.59995 15.78C9.40995 15.78 9.21995 15.71 9.06995 15.56L6.57995 13.07C5.98995 12.48 5.98995 11.53 6.57995 10.94L9.06995 8.45004C9.35995 8.16004 9.83995 8.16004 10.13 8.45004C10.42 8.74004 10.42 9.22004 10.13 9.51004L7.63995 12L10.13 14.5C10.42 14.79 10.42 15.27 10.13 15.56C9.97995 15.7 9.78995 15.78 9.59995 15.78Z" fill="#475569"/>
<path d="M14.4001 15.78C14.2101 15.78 14.0201 15.71 13.8701 15.56C13.5801 15.27 13.5801 14.79 13.8701 14.5L16.3601 12L13.8701 9.50003C13.5801 9.21003 13.5801 8.73003 13.8701 8.44003C14.1601 8.15003 14.6401 8.15003 14.9301 8.44003L17.4201 10.93C18.0101 11.52 18.0101 12.47 17.4201 13.06L14.9301 15.55C14.7901 15.7 14.5901 15.78 14.4001 15.78Z" fill="#475569"/>
</svg>
